<?xml version="1.0" encoding="utf-8"?><svg xmlns="http://www.w3.org/2000/svg" xmlns:xlink="http://www.w3.org/1999/xlink" width="1419" height="495" preserveAspectRatio="xMidYMid" viewBox="0 0 1419 495" style="z-index:1;margin-right:-2px;display:block;background-repeat-y:initial;background-repeat-x:initial;animation-play-state:paused" ><g transform="translate(709.5,247.5) scale(1,1) translate(-709.5,-247.5)" style="transform:matrix(1, 0, 0, 1, 0, 0);animation-play-state:paused" ><linearGradient id="lg-0.769137409283023" x1="0" x2="1" y1="0" y2="0" style="animation-play-state:paused" ><stop stop-color="#222222" offset="0" style="animation-play-state:paused" ></stop>

  
<stop stop-color="#00d8ff" offset="1" style="animation-play-state:paused" ></stop></linearGradient>
<path d="M 0 0 L 0 386.865 Q 141.9 258.382 283.8 232.932 T 567.6 49.2393 T 851.4 -113.4 T 1135.2 -299.377 T 1419 -464.195 L 1419 0 Z" fill="url(#lg-0.769137409283023)" opacity="0.56" style="opacity:0.56;animation-play-state:paused" ></path>
<path d="M 0 0 L 0 396.057 Q 141.9 287.545 283.8 245.97 T 567.6 83.1821 T 851.4 -79.2152 T 1135.2 -228.194 T 1419 -383.031 L 1419 0 Z" fill="url(#lg-0.769137409283023)" opacity="0.56" style="opacity:0.56;animation-play-state:paused" ></path>
<path d="M 0 0 L 0 392.421 Q 141.9 272.488 283.8 235.209 T 567.6 78.6897 T 851.4 -75.4479 T 1135.2 -214.825 T 1419 -375.15 L 1419 0 Z" fill="url(#lg-0.769137409283023)" opacity="0.56" style="opacity:0.56;animation-play-state:paused" ></path>
<path d="M 0 0 L 0 395.8 Q 141.9 278.38 283.8 253.56 T 567.6 103.873 T 851.4 -45.1198 T 1135.2 -210.612 T 1419 -342.326 L 1419 0 Z" fill="url(#lg-0.769137409283023)" opacity="0.56" style="opacity:0.56;animation-play-state:paused" ></path>
<path d="M 0 0 L 0 387.145 Q 141.9 262.09 283.8 226.211 T 567.6 85.7358 T 851.4 -74.3868 T 1135.2 -225.889 T 1419 -401.891 L 1419 0 Z" fill="url(#lg-0.769137409283023)" opacity="0.56" style="opacity:0.56;animation-play-state:paused" ></path></g></svg>